<svg width="120" height="120" viewBox="0 0 120 120" fill="none" xmlns="http://www.w3.org/2000/svg">
<path d="M55.0699 81.7898H61.5899L54.5399 90.1098C54.2299 90.4798 54.1299 90.8498 54.1299 91.3398V92.5498C54.1299 93.0698 54.5499 93.4898 55.0699 93.4898H66.9199C67.4399 93.4898 67.8599 93.0698 67.8599 92.5498V90.4698C67.8599 89.9498 67.4399 89.5298 66.9199 89.5298H60.3299L67.4499 81.1098C67.7599 80.7398 67.8599 80.3998 67.8599 79.9098V78.7198C67.8599 78.1998 67.4399 77.7798 66.9199 77.7798H55.0699C54.5499 77.7798 54.1299 78.1998 54.1299 78.7198V80.8498C54.1299 81.3698 54.5499 81.7898 55.0699 81.7898Z" fill="white"/>
<path d="M86.9002 77.7898H84.6402C84.1702 77.7898 83.7902 78.1698 83.7902 78.6398V85.8098C83.7902 87.1598 83.7002 88.0898 83.5102 88.5698C83.3202 89.0398 82.9802 89.4398 82.5002 89.7498C82.0202 90.0598 81.4302 90.2098 80.7602 90.2098C80.1202 90.2098 79.5702 90.0698 79.1302 89.7898C78.6802 89.5098 78.3602 89.1398 78.1602 88.6798C77.9602 88.2098 77.8702 87.4298 77.8702 86.2898V78.6298C77.8702 78.1598 77.4902 77.7798 77.0202 77.7798H74.7602C74.2902 77.7798 73.9102 78.1598 73.9102 78.6298V85.2598C73.9102 87.6798 74.1502 89.4198 74.6202 90.4398C75.0902 91.4598 75.8802 92.3198 76.9802 92.9998C78.0702 93.6798 79.3702 94.0198 80.8502 94.0198C81.9702 94.0198 82.9702 93.8398 83.8202 93.4898C84.6702 93.1398 85.4302 92.5798 86.0802 91.8398C86.7302 91.0998 87.1802 90.3298 87.4102 89.5298C87.6402 88.7398 87.7602 87.2998 87.7602 85.2598V78.6298C87.7602 78.1598 87.3802 77.7798 86.9102 77.7798" fill="white"/>
<path d="M47.2302 77.7898H44.9702C44.5002 77.7898 44.1202 78.1698 44.1202 78.6398V85.8098C44.1202 87.1598 44.0302 88.0898 43.8402 88.5698C43.6502 89.0398 43.3202 89.4398 42.8302 89.7498C42.3402 90.0598 41.7602 90.2098 41.0902 90.2098C40.4502 90.2098 39.9002 90.0698 39.4602 89.7898C39.0102 89.5098 38.6902 89.1398 38.4902 88.6798C38.2902 88.2098 38.2002 87.4298 38.2002 86.2898V78.6298C38.2002 78.1598 37.8202 77.7798 37.3502 77.7798H35.0902C34.6202 77.7798 34.2402 78.1598 34.2402 78.6298V85.2598C34.2402 87.6798 34.4802 89.4198 34.9502 90.4398C35.4202 91.4598 36.2102 92.3198 37.3102 92.9998C38.4002 93.6798 39.7002 94.0198 41.1802 94.0198C42.3002 94.0198 43.3002 93.8398 44.1502 93.4898C45.0002 93.1398 45.7602 92.5798 46.4102 91.8398C47.0602 91.0998 47.5102 90.3298 47.7402 89.5298C47.9702 88.7398 48.0902 87.2998 48.0902 85.2598V78.6298C48.0902 78.1598 47.7102 77.7798 47.2402 77.7798" fill="white"/>
<path d="M44.0199 60.86C42.2099 52.21 49.1099 38.84 58.5499 36.75C60.2999 38.38 60.8599 42.97 60.5699 45.28C56.9199 45.76 49.2899 53.03 50.0299 61.18C50.1599 62.58 51.8699 63.38 51.8699 63.38C48.4999 66.15 44.8599 64.86 44.0299 60.86" fill="#B4B4B4"/>
<path d="M76.7297 48.6401C69.8997 50.0101 65.8697 56.8601 65.8897 62.1901C65.8997 65.7201 69.5597 67.0101 72.0597 64.9001C70.5497 65.0101 70.1497 64.1101 70.1497 63.5001C70.1097 60.0001 74.1897 55.3001 77.2497 55.2601C77.8897 53.5501 77.4997 49.8801 76.7297 48.6501" fill="#B4B4B4"/>
<path d="M32.1895 66.6502C28.2795 57.3902 29.2595 41.2702 37.9195 31.9702C47.3695 21.8302 62.7495 22.9802 66.8895 33.9602C70.9395 44.6902 65.1395 60.2502 56.9995 66.5502C52.1795 70.2802 44.8095 68.6502 43.9995 60.6802C44.8195 63.4402 48.2895 64.3002 50.7295 62.2402C54.5295 59.0202 58.7695 52.4202 59.1795 45.7902C59.8995 34.4202 49.8995 31.5202 42.2395 38.5402C31.8895 48.0302 34.3995 63.3002 34.7595 65.1502C35.1195 67.0002 35.3895 68.0402 34.4295 68.4002C33.6295 68.7102 32.7895 68.0902 32.1895 66.6602" fill="white"/>
<path d="M86.6601 50.6299C86.6701 53.1799 86.2501 55.7399 85.3801 58.1499C85.3101 58.3399 85.2401 58.5199 85.1701 58.7099C86.1501 61.7299 84.2401 65.3499 82.7201 67.0499C81.6901 68.1999 82.6901 68.7699 84.0301 68.2299C85.8601 67.4799 90.1001 64.2099 90.2801 59.4799C90.4001 56.3199 88.9101 52.3599 86.6601 50.6299Z" fill="white"/>
<path d="M70.8203 34.6001C70.8203 34.6001 70.8203 34.6101 70.8203 34.6201C70.8003 34.6201 70.7703 34.6201 70.7503 34.6201C71.5703 37.5601 71.8603 40.8301 71.6003 44.2601C76.0003 45.7401 77.7803 51.1901 76.5603 56.0301C75.3603 60.8201 71.9903 63.9101 69.9003 64.1201C67.3503 64.3801 65.8803 62.3701 66.0203 60.6001C65.4503 63.9501 66.3103 68.3401 70.4503 68.4701C76.1803 68.6501 80.0703 64.6801 82.7703 57.2301C86.2203 47.7201 81.6303 35.7901 70.8103 34.6201" fill="white"/>
</svg>
